<svg id="Layer_1" data-name="Layer 1" xmlns="http://www.w3.org/2000/svg" viewBox="0 0 144.02 61.5"><defs><style>.cls-1{fill:#b52a6b;fill-rule:evenodd;}</style></defs><path class="cls-1" d="M61.85,44.68Zm12.67-.52a7.6,7.6,0,0,0,1-.29l.17,0a5.43,5.43,0,0,0,3.45-3.66l.09-.33s-2.36,0-2.91,0a4.43,4.43,0,0,0-.63.13,3.81,3.81,0,0,0-1.17.52,4.4,4.4,0,0,0-1.53,1.67,6.69,6.69,0,0,0-.83,2.41s2.2-.34,2.4-.41A0,0,0,0,0,74.52,44.16Zm15.44-4a2.87,2.87,0,0,0-.83.11A5.94,5.94,0,0,0,86.47,42a5.22,5.22,0,0,0-1.41,3.71c0,2.53,1.56,4.6,3.49,4.6a2.93,2.93,0,0,0,.58-.06A3.92,3.92,0,0,0,91.58,48a18.22,18.22,0,0,0,1.6-7.83Zm-48.47-.32h0a5.19,5.19,0,0,0-.56,0v0h-.05c-2.22.26-3.9,2.91-3.64,5.9s2.08,4.72,4.22,4.8c0,0,0,0,0,0a4.73,4.73,0,0,0,.53,0h0c2.23-.27,3.93-2.86,3.67-5.85S43.63,39.93,41.49,39.84ZM27,39.84h0a5,5,0,0,0-.55,0v0h-.05c-2.23.26-3.91,2.91-3.64,5.9s2.08,4.74,4.22,4.8h0a4.89,4.89,0,0,0,.54,0h.05c2.22-.26,3.94-2.86,3.67-5.85S29.09,39.93,27,39.84Zm19.74.45a4.93,4.93,0,0,1,1.19,3.12v.77a8.86,8.86,0,0,1-.51,2.43c0,.09-.16.4-.38.84l0,0a7.12,7.12,0,0,1-5.48,4.12h0a7.08,7.08,0,0,1-2.24,0H39A5.44,5.44,0,0,1,37,50.79l-.2-.15a5.1,5.1,0,0,1-.47-.45,4.92,4.92,0,0,1-1.19-3.13v-.77a7.94,7.94,0,0,1,.51-2.43A6,6,0,0,1,36,43L36,43a7.1,7.1,0,0,1,5.48-4.11h0a7.24,7.24,0,0,1,2.24,0h.18a5.34,5.34,0,0,1,2.09.81l.22.16A5.13,5.13,0,0,1,46.69,40.29Zm34.28,9a.6.6,0,0,1,0,.47,3,3,0,0,1-.66.61,8.7,8.7,0,0,1-4.64,1.3,10.06,10.06,0,0,1-2.51-.28,4.19,4.19,0,0,1-.76-.24,4,4,0,0,1-2.28-2.56v-.05a7.82,7.82,0,0,1-.21-1.6v-.36A8.53,8.53,0,0,1,72,41.34l.05-.06a8.15,8.15,0,0,1,3.43-2.23,1,1,0,0,1,.17,0,5.4,5.4,0,0,1,.86-.16,24,24,0,0,1,4.26,0,.35.35,0,0,1,.16,0s0,0,0,.1a6.8,6.8,0,0,1-3.9,5l-.11,0c1.65,0,3.23.23,3.94,1.11h0a29.14,29.14,0,0,0-5.21.11,21.15,21.15,0,0,0-3.57.62l0,0a5.18,5.18,0,0,0,.9,2.85,4.85,4.85,0,0,0,2.71,1.78,5.54,5.54,0,0,0,2.07.15c.87-.12,2.26-.37,2.66-1.3a.32.32,0,0,1,.6,0Zm-48.82-9a4.87,4.87,0,0,1,1.19,3.12v.77a8.25,8.25,0,0,1-.51,2.43c0,.09-.16.4-.37.84l0,0A7.15,7.15,0,0,1,27,51.62h0a7.08,7.08,0,0,1-2.24,0h-.19a5.54,5.54,0,0,1-2.09-.81l-.21-.16a4.11,4.11,0,0,1-.47-.46,4.85,4.85,0,0,1-1.17-3.12v-.78a7.78,7.78,0,0,1,.5-2.43,5.39,5.39,0,0,1,.37-.83l0-.05a7.06,7.06,0,0,1,5.47-4.11h0a6.88,6.88,0,0,1,2.24,0h.18a5.29,5.29,0,0,1,2.11.82l.22.15C31.85,40,32,40.13,32.15,40.29ZM17.74,47c-.16,0-.59.58-.69.69-1.17,1.34-2.5,2.58-4.4,2.58-2.55,0-3.83-2.37-3.83-4.67a6.17,6.17,0,0,1,.53-2.54,6.13,6.13,0,0,1,6.41-3.3l.06,0c.14.12-.05.53-.1.68s-.05.27.12.25h0a3.85,3.85,0,0,0,2-1.33,1.13,1.13,0,0,0,.22-.53.21.21,0,0,0,0-.08.14.14,0,0,0-.14-.08H16.75v0a24,24,0,0,0-2.8.12,7.88,7.88,0,0,0-5.4,3.6c-2.05,3-2.13,6.59-.24,8.29a3.8,3.8,0,0,0,1.15.68A6.51,6.51,0,0,0,14,51.12a17.19,17.19,0,0,0,2.21-1.28c.44-.33.46.43.5.65a6.47,6.47,0,0,1-1.09,4.08,4.69,4.69,0,0,1-1.78,1.73,1.79,1.79,0,0,1-1.07.07.39.39,0,0,0-.37.09.3.3,0,0,0-.07.3.56.56,0,0,0,.57.34,2.12,2.12,0,0,0,.73-.15,5.69,5.69,0,0,0,1.94-1.17,9,9,0,0,0,2.84-7.6C18.33,47.6,18.13,47.11,17.74,47Zm77.71,4.48h-2.2l-.08-3.87c-.1.18-.21.33-.32.5a8.72,8.72,0,0,1-3.72,3.15,4.32,4.32,0,0,1-4.2-.2c-2.23-1.51-2.29-5.29-.13-8.45a8.34,8.34,0,0,1,4.33-3.35,5.37,5.37,0,0,1,1-.2,37.59,37.59,0,0,1,5.13-.1S94.48,46.7,95.45,51.48Zm27.86-2.72-.08,0h0c-.14,0-.29,0-.37.27-.45,1.39-2.42,1.57-3.58,1.19a4.84,4.84,0,0,1-2.94-3.91v0a.44.44,0,0,1,0-.15.06.06,0,0,0,0,0,7,7,0,0,1,0-1.19v0c.4-5.92,5-5.64,6.17-5.55l.26-.75c-.27,0-.67,0-1.12,0-.71,0-1.08,0-1.2,0s-.14-.09,0-.15a4.52,4.52,0,0,0,2.14-2.4s-.48.36-.87.63a12.86,12.86,0,0,1-8,1.88l-.17.75c2.93-.26,2.29,1.17,2,2.15a13.81,13.81,0,0,0-.59,7.24,5.86,5.86,0,0,0,.21.67.27.27,0,0,1,0,.11.67.67,0,0,0,.06.12,3.6,3.6,0,0,0,.85,1.18,2.65,2.65,0,0,0,.51.38c1.68,1.06,4.18.52,5.81-.67.36-.27,1-.76,1.09-1.23A.42.42,0,0,0,123.31,48.76Zm13.12-6.85c-.39-1.14-1.31-3-3.22-3-2.09,0-3.71,1.54-4.91,2.66V39.88l.06-5.75s0-1.17,0-1.26h-2.32c.25,2.84.34,5.8.34,8.5,0,5-.29,9.1-.36,10.12h2.22c-.09-1.16-.12-2.18-.12-3.09a20.64,20.64,0,0,1,.47-4.89l0,0,0-.08a4.8,4.8,0,0,1,1.07-1.88,2.64,2.64,0,0,1,1.47-1,2.24,2.24,0,0,1,.73-.07c2,.1,3.52,3.28,3.52,7.29V48a14.28,14.28,0,0,1-.48,3.54h1.82a46,46,0,0,0,.27-4.73A14.12,14.12,0,0,0,136.43,41.91ZM111.9,50.82l-.14.08c-.68.48-1.56.1-2.19-.26a10.54,10.54,0,0,1-3.25-3.49,13,13,0,0,1-.78-1.32c1.44-.86,4.6-3.24,3.69-5.56a.36.36,0,0,0,0-.09,3.27,3.27,0,0,0-3-1.32s-2.38,0-4.35.07H99.66c.12,1.26.71,8.18-.21,12.56h2.35c-.2-4.74,0-10.34,0-11.48.79-.2,3.48-.77,4.89.07a2,2,0,0,1,.77,2.46h0a.45.45,0,0,0,0,.08,3.69,3.69,0,0,1-.81,1.31,6.68,6.68,0,0,1-1.46,1.19,16.07,16.07,0,0,1-2,1l0,0A13.83,13.83,0,0,0,108,51a7.28,7.28,0,0,0,2.24.73,2.91,2.91,0,0,0,2-.27.48.48,0,0,0,.21-.44.23.23,0,0,0-.08-.17A.32.32,0,0,0,111.9,50.82ZM81.17,22a3.82,3.82,0,0,1-2.12,1.17,7.24,7.24,0,0,1-4.22-.58,4.8,4.8,0,0,0-3.9-.22h0C73,23.82,73.2,25.11,73.26,27c0,1.14-.22,2.7.47,3.75a1.67,1.67,0,0,0,1.51.81l.18,0a.38.38,0,0,1,.39.28c.06.3-.22.51-.48.54A3.83,3.83,0,0,1,73,31.72a7.54,7.54,0,0,1-2.6-3.38,4.78,4.78,0,0,0-2.62-2.9c.45,2.49-.34,3.53-1.62,4.91-.78.83-2.07,1.77-2.31,3a1.63,1.63,0,0,0,.5,1.62l.14.12c.17.19.16.34.07.47a.49.49,0,0,1-.72,0,3.92,3.92,0,0,1-1.19-2.1,7.34,7.34,0,0,1,.54-4.23,4.84,4.84,0,0,0,.18-3.9h0c-1.44,2.08-2.74,2.26-4.62,2.32-1.14,0-2.71-.2-3.76.5a1.65,1.65,0,0,0-.8,1.51c0,.05,0,.11,0,.18a.57.57,0,0,1-.06.24.54.54,0,0,1-.16.2c-.8.54-.59,2.14-.34,2.81C54.2,35,55.77,36,57.57,37c2.47,1.39,4.33,2.71,5.07,4.9l0,.08a7,7,0,0,1,.31,2.1A7.47,7.47,0,0,1,62.39,47s-.14.34-.17.4l0,.06a7.15,7.15,0,0,1-5.5,4.15,7.49,7.49,0,0,1-2.25,0l-.18,0a5.26,5.26,0,0,1-2.12-.83l-.21-.15-.47-.45a5.57,5.57,0,0,1-1.16-4.34,8.42,8.42,0,0,1,1.88-4.39,6.13,6.13,0,0,1,2.88-2,.8.8,0,0,1,.31,0h.1a.55.55,0,0,1,.23.09.37.37,0,0,1,.1.51.44.44,0,0,1-.34.1,1.86,1.86,0,0,0-1.34.42,5.26,5.26,0,0,0-1.62,3.17,7.6,7.6,0,0,0-.08,2c.29,3.26,2.46,5.1,4.83,4.86h0c2.24-.26,3.93-2.93,3.67-5.93a5.54,5.54,0,0,0-1.08-3.07c-.06-.09-.33-.42-.33-.42a12.26,12.26,0,0,0-3-2.53l-.5-.32a16.5,16.5,0,0,1-1.33-1v0a5.89,5.89,0,0,1-1.93-6.05,2.67,2.67,0,0,1,.66-1.32l0-.1A3.87,3.87,0,0,1,54,27.47a7.35,7.35,0,0,1,3.37-2.6,4.82,4.82,0,0,0,2.89-2.64l0,0c-2.5.43-3.52-.37-4.89-1.68-.82-.78-1.75-2.08-3-2.34a1.63,1.63,0,0,0-1.63.49c-.05,0-.08.09-.13.13s-.34.16-.47.07a.49.49,0,0,1,0-.71A3.84,3.84,0,0,1,52.29,17a7.3,7.3,0,0,1,4.22.59,4.82,4.82,0,0,0,3.89.22h0c-2.08-1.45-2.25-2.74-2.31-4.63,0-1.14.22-2.71-.48-3.76a1.63,1.63,0,0,0-1.5-.8l-.18,0c-.26,0-.36-.14-.39-.28A.5.5,0,0,1,56,7.79a3.82,3.82,0,0,1,2.33.65,7.33,7.33,0,0,1,2.6,3.38,4.82,4.82,0,0,0,2.63,2.9c-.45-2.5.34-3.53,1.62-4.91C66,9,67.25,8,67.49,6.8A1.64,1.64,0,0,0,67,5.17l-.14-.11a.38.38,0,0,1-.08-.48.51.51,0,0,1,.72,0,3.87,3.87,0,0,1,1.2,2.11,7.45,7.45,0,0,1-.54,4.23A4.81,4.81,0,0,0,68,14.76h0c1.45-2.09,2.74-2.26,4.63-2.32,1.14,0,2.71.21,3.76-.49a1.65,1.65,0,0,0,.8-1.51c0-.06,0-.12,0-.18,0-.25.13-.35.28-.38.3-.07.51.21.54.46a3.84,3.84,0,0,1-.64,2.34,7.41,7.41,0,0,1-3.37,2.61A4.88,4.88,0,0,0,71,17.92v0c2.5-.43,3.52.38,4.89,1.67.82.79,1.74,2.09,3,2.34a1.62,1.62,0,0,0,1.63-.48l.12-.14a.37.37,0,0,1,.47-.07A.49.49,0,0,1,81.17,22ZM62.73,16.36a2.22,2.22,0,0,0,.82.75l.25.18c.33.32.16.93.16,1l-.05.16-.13.41.46-.4A2,2,0,0,0,64.6,18L65,18a2.51,2.51,0,0,0,.74-.23l.43.21A1.4,1.4,0,0,0,68,17.71a2.54,2.54,0,0,0,.4-1.1l.06-.29c.1-.22.25-.36.83-.47l.14,0,.35-.06-.44-.24a1.4,1.4,0,0,0-1.83.28,2.35,2.35,0,0,0-.38,1s0,.06,0,.06l-.06.25c-.18.43-.82.5-.83.5l-.36.05a1.54,1.54,0,0,0,.48-.5,2.52,2.52,0,0,0-.23-2.35,2.35,2.35,0,0,1,.42-2.67l.08-.07-.18-.26-.09,0a3.14,3.14,0,0,0-1.61,1.55,2.46,2.46,0,0,0,.19,2l0,.08c.34.64.7,1.56-.09,2.18l-.23.18a1.23,1.23,0,0,0,0-1.22,2.54,2.54,0,0,0-.88-.8l-.22-.16c-.18-.18-.24-.36-.12-.95l.09-.48-.27.22-.11.09A1.4,1.4,0,0,0,62.73,16.36ZM61.93,23a2.24,2.24,0,0,0,.73-.81l.05-.06.15-.2a1,1,0,0,1,1-.15l.57.16L64,21.48a2.71,2.71,0,0,0-.41-.36l0-.45a2,2,0,0,0-.22-.74l.22-.43a1.4,1.4,0,0,0-.27-1.83,2.63,2.63,0,0,0-1.11-.4l-.28-.06c-.22-.09-.36-.24-.48-.83l-.1-.48-.16.31-.06.12a1.88,1.88,0,0,0-.21.82,1.27,1.27,0,0,0,.48,1h0a2.36,2.36,0,0,0,1,.38h0l.28.06c.43.17.51.82.51.83s0,.2,0,.37a1.33,1.33,0,0,0-.49-.48,2.51,2.51,0,0,0-2.35.22,2.36,2.36,0,0,1-2.67-.42l-.07-.07-.09.05-.16.12,0,.09A3,3,0,0,0,59,20.92a2.36,2.36,0,0,0,2-.18l.07,0c.37-.2,1.49-.8,2.19.1,0,0,.1.11.19.23a1.23,1.23,0,0,0-1.23,0,2.54,2.54,0,0,0-.79.86s-.16.24-.16.24c-.18.17-.36.24-1,.12l-.49-.09.32.37A1.39,1.39,0,0,0,61.93,23Zm6.63.81a2.41,2.41,0,0,0-.82-.76l-.26-.18a1.11,1.11,0,0,1-.15-1l.16-.58-.32.28-.12.12a2,2,0,0,0-.37.4l-.28,0h-.16a2,2,0,0,0-.74.22l-.43-.22a1.39,1.39,0,0,0-1.83.28,2.5,2.5,0,0,0-.4,1.11l-.07.27c-.09.23-.24.36-.83.48l-.48.1.44.23a1.4,1.4,0,0,0,1.83-.28,2.26,2.26,0,0,0,.37-1s.07-.33.07-.33c.18-.43.83-.51.84-.51l.37,0a1.5,1.5,0,0,0-.49.51,2.54,2.54,0,0,0,.22,2.35A2.34,2.34,0,0,1,64.7,28l-.08.06.17.25.09,0a3.14,3.14,0,0,0,1.62-1.55,2.44,2.44,0,0,0-.19-2l0-.09c-.34-.64-.71-1.57.09-2.18l.12-.1.11-.09a1.28,1.28,0,0,0,0,1.23,2.58,2.58,0,0,0,.88.8l.22.15c.18.19.24.37.13,1l-.09.48.37-.31A1.38,1.38,0,0,0,68.56,23.8Zm5.31-2.88-.05-.09a3,3,0,0,0-1.55-1.6h0a2.4,2.4,0,0,0-2,.18l-.07,0c-.65.34-1.57.7-2.2-.09l-.18-.23a1.28,1.28,0,0,0,1.23,0,2.54,2.54,0,0,0,.79-.86L70,18c.18-.18.35-.24.95-.13l.48.1-.31-.38a1.4,1.4,0,0,0-1.79-.45,2.35,2.35,0,0,0-.76.83l-.18.25a1.08,1.08,0,0,1-1,.16l-.57-.18.39.46a1.86,1.86,0,0,0,.4.35l0,.29,0,.15a1.94,1.94,0,0,0,.22.75l-.14.28-.08.15a1.92,1.92,0,0,0-.21.82,1.24,1.24,0,0,0,.49,1,2.48,2.48,0,0,0,1.12.4l.26.06c.23.1.36.24.48.83l0,.15.07.34.23-.44a1.88,1.88,0,0,0,.21-.82,1.23,1.23,0,0,0-.48-1h0a0,0,0,0,0,0,0,2.23,2.23,0,0,0-1-.38l-.33-.08c-.4-.16-.49-.72-.51-.83s0-.2,0-.37a1.56,1.56,0,0,0,.5.49,2.52,2.52,0,0,0,2.35-.23,2.37,2.37,0,0,1,2.67.42l.07.07ZM68,14.77h0Zm-5.25,4Zm7.45.72Zm-1.61,1.89h0Z"/></svg>